<?xml version="1.0" encoding="UTF-8"?>
<svg version="1.1" xmlns="http://www.w3.org/2000/svg" width="19305" height="6629">
<path d="M0 0 C19.38495673 0.00436205 38.76990807 0.00395411 58.15486475 -0.00045529 C284.50994831 -0.05182381 284.50994831 -0.05182381 389.71854353 1.03104706 C396.84122927 1.10619107 403.96394321 1.17698294 411.08670974 1.24402471 C412.51392601 1.25746663 412.51392601 1.25746663 413.96997494 1.27118011 C415.85475427 1.28892287 417.73953362 1.30666362 419.624313 1.32440229 C439.80195156 1.51527035 459.9791668 1.73693286 480.15630412 1.97453828 C482.7745757 2.00529226 485.39285007 2.03579808 488.01112533 2.06623693 C583.68514293 3.17908522 679.35477043 4.61289907 1340.14136672 21.12946172 C1341.06270683 21.15978836 1341.98404695 21.19011501 1342.93330646 21.22136064 C1435.55007265 24.27203544 1528.15045025 27.73060766 3722.14136672 177.12946172 C3723.04146437 177.21838721 3723.94156201 177.30731269 3724.86893535 177.39893289 C3820.14119174 186.81224284 3915.37238047 196.60671109 5704.14136672 433.12946172 C5704.82187276 433.23901221 5705.5023788 433.34856269 5706.20350623 433.46143289 C5778.33414237 445.07468249 5850.42690923 456.91778085 7073.14136672 687.12946172 C7074.30961989 687.37652112 7075.47787307 687.62358053 7076.68152785 687.87812658 C7188.40493248 711.51054766 7299.95914771 735.93334801 7875.31543899 870.69592901 C7880.11605887 871.87733802 7884.91693308 873.05770947 7889.71790862 874.23767228 C7936.62538478 885.76642551 7983.49427675 897.43535987 8030.29677463 909.38339086 C8035.76785101 910.77977918 8041.23982509 912.17261415 8046.7121675 913.56403203 C8094.73262417 925.77529174 8142.6716587 938.27680763 8190.57023597 950.95734449 C8204.11319902 954.54233239 8217.6616236 958.10582206 8231.21558547 961.64899297 C8271.79193519 972.25808147 8312.31148725 983.05046551 8352.76628566 994.11407228 C8358.87918741 995.78541367 8364.9932417 997.45250354 8371.10767531 999.11823125 C8455.38738438 1022.07953175 8539.4685348 1045.70130967 8735.14136672 1102.12946172 C8735.87148215 1102.34506749 8736.60159759 1102.56067327 8737.35383773 1102.78281255 C8781.64972393 1115.86577547 8825.90137915 1129.0971516 8870.09863448 1142.50957341 C8872.17243297 1143.1388891 8874.24628559 1143.76802621 8876.32013869 1144.39716192 C8947.76984664 1166.07619298 9019.04013613 1188.33354463 9090.14136672 1211.12946172 C9090.7922325 1211.33809598 9091.44309829 1211.54673024 9092.11368728 1211.76168676 C9138.14150314 1226.51702978 9184.06708678 1241.58095146 9229.96070266 1256.74805303 C9233.74716474 1257.99937445 9237.53406819 1259.24935571 9241.32105422 1260.49909063 C9262.9713096 1267.64678308 9284.5544009 1274.96037421 9306.06739211 1282.5115418 C9317.72035924 1286.6002707 9329.39679676 1290.61306202 9341.09281325 1294.57687993 C9364.49478386 1302.51065827 9387.79592116 1310.71644507 9411.06525588 1319.03052373 C9414.14549416 1320.13093625 9417.22617312 1321.23010832 9420.30689406 1322.32916875 C9444.0368409 1330.7996905 9467.71509412 1339.4024967 9491.32886672 1348.19196172 C9492.36620955 1348.57761297 9493.40355239 1348.96326421 9494.47232985 1349.36060186 C9509.08875738 1354.79942866 9523.63537429 1360.4026829 9538.14136672 1366.12946172 C9538.14136672 1366.45946172 9538.14136672 1366.78946172 9538.14136672 1367.12946172 C9531.24319628 1366.55907726 9524.54212754 1365.55625649 9517.75879836 1364.1936707 C9516.26382544 1363.89932543 9516.26382544 1363.89932543 9514.73865104 1363.59903379 C9511.42539335 1362.94558387 9508.11348515 1362.28553747 9504.80152297 1361.62555547 C9502.42097959 1361.15483375 9500.04034671 1360.68456444 9497.65963149 1360.21471258 C9492.53713029 1359.2029422 9487.41516681 1358.18849609 9482.29364944 1357.17175908 C9474.076185 1355.5405781 9465.85721391 1353.91706879 9457.63794875 1352.29498906 C9456.23078532 1352.01725593 9454.82362234 1351.73952053 9453.4164598 1351.46178289 C9451.28880495 1351.04184259 9449.16114858 1350.62190998 9447.03348613 1350.2020082 C9441.98414398 1349.20545958 9436.93495067 1348.20815909 9431.88581252 1347.21057744 C9347.9322094 1330.62485596 9263.92194038 1314.33029057 8455.96802497 1167.00054689 C8448.67690334 1165.74080147 8441.38604386 1164.47955311 8434.09539676 1163.21706434 C8343.34120058 1147.50238072 8252.52258626 1132.16918241 7457.15988326 1005.73064275 C7453.82973662 1005.23248145 7450.49962873 1004.73406169 7447.16953409 1004.23555298 C7361.92523562 991.47485662 7276.64658041 978.9437196 6625.53850055 888.44473119 C6623.10836247 888.12512102 6620.67823522 887.80542863 6618.24810958 887.48572393 C6530.03141621 875.88096746 6441.78996504 864.47107036 6282.7934978 844.46141286 C6280.15956326 844.13173927 6277.52564221 843.80195809 6274.8917253 843.47214361 C6179.87556216 831.57491333 6084.82216295 819.99339859 4721.92708659 674.38987966 C4719.14214487 674.12953446 4716.35721268 673.86908748 4713.57228255 673.60861821 C4612.25771326 664.13379901 4510.91587978 654.97397632 -46.53292489 435.15190263 C-49.50928567 435.12318353 -52.48564472 435.09428774 -55.46200371 435.06538375 C-58.892715 435.03209724 -62.32342809 434.99899804 -65.75414109 434.9658875 C-66.89230649 434.9548392 -68.03047189 434.94379091 -69.20312715 434.93240781 C-91.68216678 434.71664274 -114.16137887 434.52789992 -136.64085984 434.36481328 C-141.19798814 434.33167639 -145.75511635 434.29852687 -150.31224437 434.26535175 C-151.67033339 434.25547292 -153.02842251 434.24560794 -154.38651173 434.23575663 C-163.26959962 434.17130146 -172.15266365 434.10432612 -181.03571278 434.03473832 C-267.31003172 433.35890472 -353.58373246 433.04972821 -587.21481147 433.00000047 C-609.70857369 433.00436194 -632.20233126 433.00395304 -654.69609344 432.99954471 C-765.90982952 432.97610173 -765.90982952 432.97610173 -1061.43378423 434.04795092 C-1070.09201325 434.11611988 -1078.75026151 434.18096311 -1087.40852952 434.24402471 C-1116.77043116 434.45855561 -1146.13196517 434.7025911 -1175.49338937 434.97453828 C-1178.82561013 435.00531112 -1182.15783327 435.0358126 -1185.49005723 435.06623693 C-1307.35764487 436.17931522 -1429.22283896 437.58475947 -3143.81327844 483.00818391 C-3146.8517661 483.12918824 -3149.89025672 483.25011832 -3152.92874742 483.3710465 C-3258.27742375 487.5652506 -3363.61456197 492.03311598 -4964.85863328 581.12946172 C-4966.45419226 581.23787468 -4966.45419226 581.23787468 -4968.08198476 581.3484778 C-5079.26954954 588.90427562 -5190.43207306 596.81201085 -6298.85863328 686.12946172 C-6299.93016648 686.22545659 -6301.00169969 686.32145147 -6302.10570359 686.42035528 C-6411.73040949 696.24255249 -6521.33970559 706.23351703 -6718.85863328 725.12946172 C-6719.9477523 725.23478908 -6721.03687133 725.34011644 -6722.15899396 725.44863553 C-6838.51802916 736.70327804 -6954.8498154 748.22727536 -8906.86841989 979.85178991 C-8908.87119979 980.13121498 -8910.87398746 980.41058426 -8912.87677598 980.68994756 C-8952.9122823 986.27483922 -8992.94055765 991.91015171 -9032.96438432 997.57813878 C-9036.83881459 998.12665592 -9040.71330633 998.67473671 -9044.58782029 999.2226624 C-9129.79761912 1011.27340532 -9214.96175665 1023.63055368 -9710.72972703 1101.18024297 C-9712.5899017 1101.49687596 -9714.45008026 1101.81348604 -9716.31026292 1102.13007207 C-9724.02675215 1103.44428031 -9731.74251135 1104.76210137 -9739.454633 1106.10172983 C-9742.46818293 1106.624033 -9745.48266274 1107.14080942 -9748.49738336 1107.65630765 C-9749.87461392 1107.89325531 -9751.25139491 1108.13283348 -9752.62767434 1108.37524457 C-9754.4824057 1108.70182423 -9756.33881474 1109.01883384 -9758.1953032 1109.33527227 C-9759.22475556 1109.5141448 -9760.25420793 1109.69301732 -9761.31485581 1109.87731023 C-9763.85863328 1110.12946172 -9763.85863328 1110.12946172 -9766.85863328 1109.12946172 C-9761.24141327 1107.07470294 -9755.4960785 1105.8602912 -9749.66429734 1104.59284063 C-9748.53305719 1104.34428603 -9747.40181705 1104.09573142 -9746.23629689 1103.83964486 C-9743.10937478 1103.15336156 -9739.98182292 1102.47004081 -9736.85395861 1101.78806706 C-9733.48956217 1101.05383301 -9730.12596436 1100.31595633 -9726.76224351 1099.57863469 C-9720.18211334 1098.13699641 -9713.60114319 1096.69922813 -9707.01983386 1095.26298346 C-9701.62049228 1094.08465735 -9696.22143204 1092.90504991 -9690.82253098 1091.72470708 C-9625.89356696 1077.53071795 -9560.9307401 1063.49548613 -9495.94245172 1049.57579084 C-9493.845451 1049.12663823 -9491.74845776 1048.67745071 -9489.6514647 1048.22826238 C-9406.09536954 1030.33083216 -9322.50474033 1012.60196535 -9140.78192735 974.73505254 C-9137.91499804 974.14113827 -9135.04812124 973.54697132 -9132.18126512 972.95270391 C-9101.74737478 966.64422286 -9071.30561825 960.37442949 -9040.85863328 954.12946172 C-9039.54487626 953.85995428 -9038.23111997 953.59044331 -9036.91736436 953.32092901 C-8947.68514346 935.01585533 -8858.40588322 916.94845631 -8570.35424781 859.94241829 C-8559.54439802 857.84576592 -8548.73547928 855.74435983 -8537.92699265 853.64069219 C-8454.10851828 837.32836197 -8370.25123255 821.22669047 -6748.85863328 540.12946172 C-6747.944941 539.98687901 -6747.03124871 539.8442963 -6746.08986878 539.6973929 C-6650.7597892 524.82192215 -6555.38437129 510.24941475 -6223.84778607 461.27951939 C-6217.43251331 460.35615182 -6211.0173507 459.43202138 -6204.60222459 458.50763555 C-6107.22395491 444.47707306 -6009.82677234 430.57875425 -5435.85863328 354.12946172 C-5434.80440801 353.99625178 -5433.75018273 353.86304183 -5432.66401124 353.72579522 C-5322.45852601 339.80068164 -5212.24004414 325.97110639 -5031.45955014 304.43614621 C-5028.85051254 304.12850417 -5026.24149145 303.82072241 -5023.63247514 303.51289983 C-4930.50446357 292.52586882 -4837.3436892 281.82753176 -3530.85863328 152.12946172 C-3529.97050447 152.05415857 -3529.08237565 151.97885541 -3528.16733384 151.90127034 C-3435.18483763 144.01797406 -3342.17581543 136.46596346 -1654.85863328 34.12946172 C-1653.93674714 34.09168929 -1653.014861 34.05391687 -1652.06503892 34.01499982 C-1555.06371595 30.04209701 -1458.04951384 26.42479273 -902.85863328 10.12946172 C-901.94908828 10.10908503 -901.03954328 10.08870834 -900.1024363 10.06771417 C-800.60255842 7.84055855 -701.09782736 5.87574534 -429.93361115 2.03508706 C-427.30315822 2.00525033 -424.67270756 1.97522063 -422.04225755 1.94512792 C-401.26298792 1.70768338 -380.48359593 1.49056842 -359.70386052 1.29796453 C-349.54089326 1.20360783 -339.37800507 1.10456958 -329.21517015 0.99683233 C-221.48079198 -0.1379392 -113.74319012 -0.02499467 0 0 Z " fill="#D3AE36" transform="translate(9766.8586332798,5261.870538279414)"/>
<path d="M0 0 C622.05 0 1244.1 0 1885 0 C1885.04234546 485.84827923 1885.04234546 485.84827923 1885.05003071 656.29455367 C1885.0501228 658.32824507 1885.05021501 660.36193648 1885.05030723 662.39562788 C1885.05037027 663.78594018 1885.05043326 665.17625249 1885.05049622 666.56656479 C1885.05072099 671.52791792 1885.05094775 676.48927105 1885.05117548 681.45062418 C1885.05467806 757.77173744 1885.05782941 834.0928507 1885.06193683 952.8431812 C1885.06233585 964.57728776 1885.06274422 976.31139432 1885.06315851 988.04550087 C1885.06590104 1065.79550407 1885.06834574 1143.54550728 1885.06640625 1588.52734375 C1885.06638025 1589.36522019 1885.06635426 1590.20309663 1885.06632747 1591.06636327 C1885.06367084 1676.53255209 1885.0598145 1761.99874085 1884.77734375 3011.00390625 C1884.77683598 3012.43865384 1884.77683598 3012.43865384 1884.77631795 3013.90238624 C1884.74278054 3108.65440317 1884.7083061 3203.40641977 1884.50789482 3717.75323422 C1884.50224169 3731.79928436 1884.4965959 3745.84533451 1884.49095565 3759.89138466 C1884.45396259 3852.01278908 1884.41677977 3944.13419342 1884.15340867 4572.59283959 C1884.1524652 4574.76825853 1884.15152195 4576.94367747 1884.15057879 4579.11909641 C1884.15027001 4579.83125966 1884.14996124 4580.54342292 1884.14964311 4581.27716688 C1884.1488119 4583.19430876 1884.14798073 4585.11145063 1884.14714956 4587.0285925 C1884.09885494 4698.35239534 1884.04928929 4809.6761976 1884 4921 C1718.67 4921 1553.34 4921 1383 4921 C1382.98135116 4744.45112453 1382.98135116 4744.45112453 1382.97830916 4686.07090481 C1382.97825597 4685.06481391 1382.97820278 4684.05872302 1382.97814797 4683.02214452 C1382.97803636 4680.90566511 1382.97792529 4678.78918569 1382.97781477 4676.67270628 C1382.97764154 4673.35766185 1382.97746623 4670.04261742 1382.9772908 4666.72757299 C1382.97203572 4566.91404363 1382.96925513 4467.10051411 1383.33626127 2584.24077092 C1383.34003488 2570.98042696 1383.34380514 2557.720083 1383.34757511 2544.45973904 C1383.34808465 2542.66754381 1383.34808465 2542.66754381 1383.3486045 2540.83914261 C1383.35444675 2520.29053765 1383.36028679 2499.74193269 1383.36612332 2479.19332773 C1383.36681099 2476.77225859 1383.36749867 2474.35118945 1383.36818634 2471.93012032 C1383.3685268 2470.73146202 1383.36886726 2469.53280373 1383.36921803 2468.29782245 C1383.3712821 2461.03141 1383.37334758 2453.76499755 1383.37541416 2446.4985851 C1383.40785732 2332.42142042 1383.43935818 2218.3442556 1383.46777344 2104.26708984 C1383.46808031 2103.03526913 1383.46838717 2101.80344842 1383.46870334 2100.53429981 C1383.47861871 2060.72310337 1383.4884325 2020.91190691 1383.49823208 1981.10071044 C1383.50768372 1942.70311326 1383.51715604 1904.30551608 1383.52671719 1865.90791893 C1383.52717342 1864.07544571 1383.52717342 1864.07544571 1383.52763887 1862.20595283 C1383.54669891 1785.67379866 1383.56693324 1709.14164488 1383.58840275 1632.60949135 C1383.58889963 1630.83750603 1383.58889963 1630.83750603 1383.58940655 1629.02972302 C1383.60394912 1577.17335543 1383.61874929 1525.31698792 1383.63383666 1473.46062048 C1383.63989824 1452.62415806 1383.64592826 1431.78769563 1383.65194332 1410.9512332 C1383.65294003 1407.49990913 1383.65393799 1404.04858506 1383.65493616 1400.59726099 C1383.67010217 1348.13529697 1383.68453599 1295.6733329 1383.69667697 1243.21136808 C1383.69706666 1241.52777483 1383.69706666 1241.52777483 1383.69746423 1239.81016959 C1383.70163301 1221.78095836 1383.70573961 1203.75174711 1383.70983754 1185.72253586 C1383.72146311 1134.5795623 1383.7335812 1083.43658907 1383.74915612 1032.29361653 C1383.74947269 1031.25341974 1383.74978927 1030.21322294 1383.75011544 1029.14150503 C1383.75703395 1006.44202554 1383.7642217 983.74254614 1383.77167287 961.04306682 C1383.77463961 951.9926369 1383.77757089 942.94220697 1383.78049088 933.89177704 C1383.78096992 932.41144217 1383.78096992 932.41144217 1383.78145864 930.90120155 C1383.79149446 899.83676953 1383.79858831 868.77233781 1383.80390343 837.70790465 C1383.80916346 807.03835276 1383.81746623 776.3688033 1383.82994437 745.69925345 C1383.83166972 741.45752864 1383.8333616 737.21580381 1383.8350333 732.97407897 C1383.8353617 732.14409251 1383.8356901 731.31410604 1383.83602845 730.45896848 C1383.84102256 717.62001305 1383.8428768 704.78105944 1383.84322461 691.94210313 C1383.84363785 679.24278782 1383.84774913 666.54347751 1383.85527216 653.84416439 C1383.85915189 647.1460673 1383.86172736 640.44798026 1383.8596265 633.74988159 C1383.84940692 580.1601856 1384.48959907 526.59209751 1385 473 C1088 473 791 473 485 473 C485 1940.84 485 3408.68 485 4921 C324.95 4921 164.9 4921 0 4921 C0 3297.07 0 1673.14 0 0 Z " fill="#D3AE36" transform="translate(8122,0)"/>
<path d="M0 0 C565.95 0 1131.9 0 1715 0 C1716.15328671 319.46041781 1716.15328671 319.46041781 1716.33190144 411.77216565 C1716.3487764 420.43371253 1716.36695033 429.09525658 1716.3853057 437.75680044 C1716.38691106 438.51460443 1716.38851643 439.27240842 1716.39017045 440.05317617 C1716.39839231 443.93232474 1716.4066287 447.81147328 1716.41486999 451.6906218 C1716.47276103 478.95377994 1716.52872072 506.21694171 1716.58345795 533.48010635 C1716.63843584 560.85947194 1716.69443336 588.23883521 1716.75151634 615.61819649 C1716.75428015 616.94413091 1716.75428015 616.94413091 1716.7570998 618.29685188 C1716.77400031 626.40468701 1716.79091114 634.51252213 1716.80783419 642.62035722 C1716.85014648 662.89240168 1716.89232004 683.16444642 1716.93439949 703.43649137 C1716.93632157 704.36241899 1716.93824365 705.2883466 1716.94022398 706.24233263 C1717.03354902 751.20590315 1717.12529264 796.16947688 1717.21690559 841.13305092 C1717.24891185 856.84114721 1717.2809259 872.54924349 1717.31296849 888.25733972 C1717.31496201 889.23461474 1717.31695552 890.21188977 1717.31900945 891.2187792 C1717.41241079 937.00191669 1717.50693702 982.78505184 1717.60172812 1028.56818648 C1717.60797297 1031.58440997 1717.6142173 1034.60063346 1717.62046149 1037.61685696 C1717.65812847 1055.8114361 1717.69580686 1074.00601523 1717.73349839 1092.20059432 C1717.8270824 1137.37601693 1717.92053013 1182.55143982 1718.01388454 1227.72686291 C1718.01600685 1228.75383909 1718.01812915 1229.78081528 1718.02031576 1230.83891195 C1718.15709071 1297.02451307 1718.29330639 1363.21011532 1718.42903996 1429.39571857 C1718.43119691 1430.4474788 1718.43335387 1431.49923903 1718.43557619 1432.58287078 C1718.50119425 1464.57968225 1718.56677017 1496.5764938 1718.6323378 1528.57330538 C1718.70488888 1563.97792709 1718.77744717 1599.38254878 1718.85003662 1634.78717041 C1718.85222023 1635.85221134 1718.85440384 1636.91725227 1718.85665362 1638.01456716 C1719.06514848 1739.70536216 1719.27480969 1841.39615474 1719.48476087 1943.08694675 C1719.49368459 1947.40923074 1719.50260798 1951.73151473 1719.51153135 1956.05379873 C1719.59366347 1995.83676574 1719.67580911 2035.61973272 1719.75797171 2075.40269967 C1719.76015702 2076.4608233 1719.76234233 2077.51894693 1719.76459386 2078.60913492 C1719.77121041 2081.81285305 1719.77782696 2085.01657117 1719.78444351 2088.2202893 C1719.96306033 2174.70617002 1720.1415595 2261.19205097 1720.31998211 2347.67793208 C1720.32627351 2350.72751578 1720.332565 2353.77709947 1720.33885652 2356.82668317 C1720.5428057 2455.68379255 1720.74654432 2554.54090237 1721.46508789 2904.28637695 C1721.46683674 2905.13836607 1721.46858559 2905.99035518 1721.47038744 2906.86816214 C1721.52212202 2932.07174905 1721.57385151 2957.27533597 1721.62557554 2982.4789229 C1721.63153341 2985.38201253 1721.63749132 2988.28510215 1721.64344924 2991.18819178 C1721.76235038 3049.12546108 1721.88116735 3107.06273056 1722 3165 C1597.26 3165 1472.52 3165 1344 3165 C1343.97871112 3024.57913362 1343.97871112 3024.57913362 1343.97486804 2974.92569327 C1343.97460811 2971.57474696 1343.97434646 2968.22380066 1343.97408321 2964.87285436 C1343.96644406 2867.17581407 1343.9636137 2769.47877387 1344.21563466 1966.88931194 C1344.21805755 1962.06086376 1344.22047777 1957.23241558 1344.22289652 1952.4039674 C1344.2573306 1883.6680655 1344.29229779 1814.93216387 1344.43630803 1541.60846224 C1344.44540117 1524.59145286 1344.45448863 1507.57444348 1344.46356201 1490.55743408 C1344.46393737 1489.85346312 1344.46431272 1489.14949216 1344.46469946 1488.42418874 C1344.5007003 1420.89973661 1344.53570309 1353.37528397 1344.57047789 1285.85083119 C1344.57275879 1281.42197116 1344.57504048 1276.99311113 1344.57732232 1272.5642511 C1344.60113484 1226.34546397 1344.62490159 1180.12667682 1344.64864895 1133.90788966 C1344.6489899 1133.24430451 1344.64933086 1132.58071935 1344.64968214 1131.89702555 C1344.65125985 1128.82639515 1344.65283749 1125.75576476 1344.654415 1122.68513436 C1344.76722213 903.12342161 1344.88388025 683.56171107 1345 464 C1020.94 464 696.88 464 363 464 C363 1356.32 363 2248.64 363 3168 C245.85 3168 128.7 3168 8 3168 C6.83391285 3018.74084484 6.83391285 3018.74084484 6.68770689 2950.63339961 C6.68186996 2948.09847414 6.67597588 2945.5635488 6.67003178 2943.02862358 C6.66071806 2939.05344026 6.65143727 2935.0782569 6.64233134 2931.1030731 C6.61998067 2921.35645679 6.59581199 2911.60984609 6.5706265 2901.86323671 C6.56783536 2900.78254936 6.56783536 2900.78254936 6.56498782 2899.68002994 C6.55546892 2895.99698365 6.54592667 2892.31393743 6.53637664 2888.63089122 C6.46787834 2862.19466255 6.40261707 2835.75842674 6.33916664 2809.32218552 C6.27509098 2782.62988625 6.2094724 2755.9375914 6.14208221 2729.24530029 C6.13993497 2728.39453275 6.13778772 2727.5437652 6.1355754 2726.66721683 C6.11588807 2718.86695241 6.09618531 2711.06668804 6.0764641 2703.26642371 C6.0270643 2683.72685858 5.97789755 2664.18729288 5.92888939 2644.64772677 C5.92664634 2643.75346633 5.92440329 2642.85920589 5.92209226 2641.93784665 C5.81222577 2598.12753069 5.70493456 2554.31720848 5.59789848 2510.50688553 C5.56031326 2495.12350985 5.52272435 2479.74013418 5.48510242 2464.35675859 C5.48159207 2462.92134546 5.48159207 2462.92134546 5.47801081 2461.45693408 C5.36889572 2416.84308136 5.25819084 2372.22923262 5.14713852 2327.61538468 C5.13740955 2323.70675111 5.12768243 2319.79811754 5.11795533 2315.88948397 C5.07884685 2300.17458725 5.03973129 2284.45969056 5.00060403 2268.74479389 C4.88873723 2223.81505893 4.77710024 2178.8853234 4.665658 2133.95558739 C4.66317754 2132.95558451 4.66069708 2131.95558164 4.65814146 2130.92527564 C4.49776557 2066.26782126 4.33840616 2001.61036442 4.17980862 1936.95290565 C4.17728112 1935.92251928 4.17475362 1934.89213291 4.17214953 1933.83052271 C4.08752879 1899.33293727 4.00296927 1864.83535169 3.91841447 1830.3377661 C3.66317629 1726.20361158 3.40693158 1622.06945972 2.94361744 1436.23873467 C2.92015291 1426.83752413 2.89668991 1417.43631358 2.87322664 1408.03510304 C2.8693588 1406.48535105 2.8693588 1406.48535105 2.86541282 1404.90429094 C2.80826841 1382.00780058 2.75113286 1359.1113102 2.69401333 1336.21481979 C2.68883703 1334.13989695 2.68366063 1332.06497411 2.67848415 1329.99005127 C2.51745916 1265.44530091 2.3571069 1200.90054891 2.19754887 1136.35579491 C2.19507614 1135.35554278 2.19260341 1134.35529064 2.19005575 1133.32472784 C2.07646605 1087.37525898 1.9630789 1041.42578962 1.84985388 995.47631985 C1.83770928 990.54784382 1.82556354 985.61936778 1.81341769 980.69089175 C1.81101635 979.71648667 1.808615 978.74208159 1.80614089 977.73814908 C1.78677979 969.88195895 1.76741769 962.02576882 1.74805508 954.1695787 C1.73599549 949.27646878 1.72393679 944.38335887 1.71187994 939.49024895 C1.60201752 894.90434346 1.49184261 850.31843879 1.38057208 805.73253679 C1.37819434 804.77973757 1.37581661 803.82693834 1.37336682 802.84526641 C1.34704582 792.29825028 1.32071508 781.75123418 1.29438086 771.20421808 C1.28485588 767.38937644 1.27533099 763.57453479 1.2658062 759.75969315 C1.26345418 758.81767893 1.26110216 757.87566471 1.25867886 756.90510461 C1.14949408 713.17385722 1.04067944 669.44260899 0.93378747 625.71135592 C0.93159427 624.81411213 0.92940108 623.91686833 0.92714142 622.99243533 C0.87916842 603.36387086 0.83135314 583.73530601 0.78369068 564.10674078 C0.76464667 556.26475891 0.74558428 548.4227771 0.72651672 540.58079529 C0.72339867 539.29808383 0.72339867 539.29808383 0.72021763 537.98945901 C0.65557396 511.39957776 0.58935161 484.80970079 0.52210579 458.219826 C0.45523976 431.77703287 0.39016909 405.3342359 0.32729901 378.89143295 C0.318444 375.16712827 0.30957106 371.44282363 0.30068732 367.71851902 C0.29895068 366.99017344 0.29721405 366.26182787 0.29542479 365.51141122 C0.27433268 356.68060662 0.25249214 347.84980458 0.22936469 339.01900505 C-0.06609442 226.01228332 0 113.00779755 0 0 Z " fill="#D3AE36" transform="translate(10508,1753)"/>
<path d="M0 0 C367.62 0 735.24 0 1114 0 C1114 1182.06 1114 2364.12 1114 3582 C1003.12 3582 892.24 3582 778 3582 C777.99187098 3441.39989193 777.99187098 3441.39989193 777.98915787 3392.25222059 C777.988976 3388.95818149 777.98879408 3385.66414238 777.98861211 3382.37010328 C777.98710542 3355.09105518 777.98561312 3327.81200708 777.98413086 3300.53295898 C777.98408095 3299.61472356 777.98403104 3298.69648814 777.98397962 3297.7504274 C777.97860761 3198.9042813 777.97345848 3100.05813519 777.957761 2707.5807174 C777.95765677 2704.3014805 777.95755234 2701.0222436 777.95744783 2697.7430067 C777.95448638 2604.80569792 777.95171958 2511.86838914 777.94921307 2418.93108036 C777.94912028 2415.49058936 777.94902748 2412.05009836 777.94893467 2408.60960736 C777.94890402 2407.47327362 777.94887337 2406.33693988 777.94884179 2405.16617179 C777.94768884 2362.44175309 777.94649146 2319.7173344 777.94526756 2276.9929157 C777.94513463 2272.35108443 777.94500221 2267.70925316 777.94487024 2263.06742188 C777.94175811 2153.61084546 777.93785222 2044.15426915 777.93133545 1934.69769287 C777.93126701 1933.54730718 777.93119858 1932.39692149 777.93112807 1931.21167563 C777.92885132 1892.96077546 777.92649681 1854.7098753 777.92413156 1816.45897514 C777.9219946 1781.89616256 777.91988559 1747.33334997 777.91786861 1712.77053738 C777.91780233 1711.63494026 777.91773605 1710.49934314 777.91766776 1709.32933399 C777.91351834 1638.11228959 777.9105817 1566.89524522 777.90886021 1495.67820072 C777.90882003 1494.02605363 777.90882003 1494.02605363 777.90877904 1492.34052983 C777.9076032 1443.94676497 777.9066791 1395.5530001 777.9060421 1347.15923523 C777.90578458 1327.68370986 777.90548985 1308.20818449 777.90517473 1288.73265913 C777.90512279 1285.50372841 777.90507206 1282.27479769 777.90502146 1279.04586697 C777.90424054 1229.7615434 777.90263902 1180.47722003 777.89860606 1131.1928966 C777.89847601 1129.60340585 777.89847601 1129.60340585 777.89834334 1127.98180418 C777.89694389 1110.93999382 777.89547483 1093.89818346 777.89399374 1076.85637311 C777.88977915 1028.36183888 777.88605089 979.86730487 777.88586724 931.37277043 C777.88586128 929.89051541 777.88586128 929.89051541 777.88585519 928.37831585 C777.88577832 906.79649642 777.88597512 885.214677 777.8864381 863.63285757 C777.88661849 855.019286 777.88676153 846.40571443 777.88689232 837.79214287 C777.88690755 836.85265003 777.88692279 835.91315718 777.88693849 834.94519486 C777.88740036 805.36619661 777.88481599 775.78719972 777.88039127 746.20820183 C777.8760306 716.9724043 777.87482039 687.73660844 777.87790984 658.50081069 C777.87833707 654.45310097 777.87872957 650.40539125 777.87910111 646.35768152 C777.87917513 645.56557734 777.87924916 644.77347316 777.87932543 643.95736582 C777.88038141 631.70706702 777.87819144 619.45677135 777.87444185 607.20647318 C777.87080093 595.07703711 777.87099299 582.94760535 777.87469893 570.81816928 C777.87656266 564.4199816 777.87708761 558.0218021 777.87276476 551.62361472 C777.84445405 499.4091511 778.49303804 447.21708213 779 395 C631.16 395 483.32 395 331 395 C331 1446.71 331 2498.42 331 3582 C221.77 3582 112.54 3582 0 3582 C0 2399.94 0 1217.88 0 0 Z " fill="#D3AE36" transform="translate(6615,1339)"/>
<path d="M0 0 C478.17 0 956.34 0 1449 0 C1449.08010587 786.87991577 1449.08010587 786.87991577 1449.06786036 967.22471285 C1449.06774209 969.00483456 1449.06762416 970.78495627 1449.06750655 972.56507798 C1449.06732368 975.33251604 1449.06714057 978.09995411 1449.06695602 980.86739217 C1449.06651696 987.46549818 1449.06610125 994.06360419 1449.06569472 1000.6617102 C1449.05959159 1099.32473909 1449.04952541 1197.9877682 1448.77734375 1711.2890625 C1448.77666683 1712.1245076 1448.77598992 1712.9599527 1448.77529249 1713.82071432 C1448.71035915 1793.90753876 1448.63943246 1873.99435774 1448.50676791 2012.09694483 C1448.50148804 2017.52894869 1448.49621881 2022.96095256 1448.49095565 2028.39295644 C1448.41974339 2101.88643839 1448.34711295 2175.37991892 1448.15245056 2360.83108521 C1448.15061498 2362.52201198 1448.15061498 2362.52201198 1448.14874231 2364.24709888 C1448.10032217 2408.83140056 1448.04996348 2453.41570002 1448 2498 C1327.55 2498 1207.1 2498 1083 2498 C1083 1807.31 1083 1116.62 1083 405 C846.06 405 609.12 405 365 405 C365 1168.62 365 1932.24 365 2719 C244.55 2719 124.1 2719 0 2719 C0 1821.73 0 924.46 0 0 Z " fill="#D3AE36" transform="translate(4619,2482)"/>
<path d="M0 0 C478.17 0 956.34 0 1449 0 C1449.08009824 561.56873455 1449.08009824 561.56873455 1449.06786036 692.7337811 C1449.06768141 694.69714188 1449.06750247 696.66050267 1449.06732398 698.62386345 C1449.06720179 699.96602755 1449.06707915 701.30819166 1449.06695602 702.65035576 C1449.0665171 707.44505444 1449.06610135 712.23975313 1449.06569472 717.03445181 C1449.05953834 789.34168199 1449.04918983 861.64891225 1448.50451323 1492.54411042 C1448.49847546 1497.50182809 1448.49245202 1502.45954576 1448.48642812 1507.41726344 C1448.44482714 1541.64954172 1448.40268581 1575.88181931 1448.35996335 1610.11409621 C1448.35465006 1614.37198113 1448.3493431 1618.62986606 1448.34403682 1622.88775099 C1448.2365863 1708.92517746 1448.11718298 1794.9625857 1448 1881 C1327.55 1881 1207.1 1881 1083 1881 C1083 1397.22 1083 913.44 1083 415 C846.06 415 609.12 415 365 415 C365 826.18 365 1237.36 365 1661 C244.55 1661 124.1 1661 0 1661 C0 1112.87 0 564.74 0 0 Z " fill="#D3AE36" transform="translate(12555,3317)"/>
<path d="M0 0 C1.2669722 -0.00101212 1.2669722 -0.00101212 2.55953979 -0.00204468 C53.67059849 0.06267201 102.98673577 16.92500437 142.8125 49.25 C143.7082373 49.97437256 143.7082373 49.97437256 144.62207031 50.71337891 C157.57021569 61.2800534 169.70206094 72.910307 179.8125 86.25 C180.54484863 87.2083374 180.54484863 87.2083374 181.29199219 88.18603516 C189.52707815 99.02681246 196.5986741 110.14181164 202.8125 122.25 C203.1935791 122.97703125 203.5746582 123.7040625 203.96728516 124.453125 C215.00795807 145.67831298 221.93988599 168.68802032 225.8125 192.25 C225.94237305 193.03117187 226.07224609 193.81234375 226.20605469 194.6171875 C234.78880547 249.4313942 220.98797703 310.56904078 188.6875 355.75 C182.52655114 364.17337693 175.99824473 372.18186011 168.95703125 379.8828125 C167.06711926 381.96894486 165.24938253 384.09649761 163.4375 386.25 C150.74008807 400.70773495 134.25483179 412.40377058 117.8125 422.25 C117.16829102 422.64251953 116.52408203 423.03503906 115.86035156 423.43945312 C65.37118658 453.94080603 3.13422107 461.48686374 -53.88134766 448.09521484 C-90.41804236 438.75464203 -123.08236435 421.29771049 -151.1875 396.25 C-151.71746582 395.78174805 -152.24743164 395.31349609 -152.79345703 394.83105469 C-159.02046893 389.31306831 -164.8818883 383.67568528 -170.1875 377.25 C-170.93257813 376.39277344 -171.67765625 375.53554688 -172.4453125 374.65234375 C-212.50723878 327.99715375 -229.48182347 268.58236855 -225.98535156 207.73193359 C-222.46663837 163.52228988 -205.48794246 119.51619681 -177.1875 85.25 C-176.73294434 84.69393066 -176.27838867 84.13786133 -175.81005859 83.56494141 C-165.14332787 70.57824249 -153.56644764 58.47028157 -140.1875 48.25 C-139.65108887 47.83186035 -139.11467773 47.4137207 -138.56201172 46.98291016 C-128.34410621 39.04208821 -117.54469128 32.4338174 -106.1875 26.25 C-105.50574707 25.87746094 -104.82399414 25.50492188 -104.12158203 25.12109375 C-80.59893142 12.42577223 -54.66307581 4.65190706 -28.1875 1.25 C-27.49696533 1.1557373 -26.80643066 1.06147461 -26.0949707 0.96435547 C-17.43466016 -0.07128761 -8.70935576 0.00625497 0 0 Z " fill="#D3AE36" transform="translate(14458.1875,4836.75)"/>
</svg>
